<svg height="486pt" viewBox="-64 0 485 486" width="486pt" xmlns="http://www.w3.org/2000/svg"><path d="m130.042969 66.648438v-26.507813c0-17.851563 13.511719-32.332031 30.179687-32.332031h.710938c16.667968 0 30.179687 14.472656 30.179687 32.320312v46.230469c.09375-8.238281 3.234375-16.152344 8.820313-22.210937 5.484375-5.992188 13.222656-9.425782 21.351562-9.46875 16.65625 0 30.167969 14.460937 30.1875 32.308593l.140625 204.832031 24.460938-29.769531c16.449219-20.03125 44.878906-22.171875 63.777343-4.800781l9.132813 7.578125-87.390625 167.890625c-14.609375 28.070312-42.261719 45.472656-72.261719 45.472656h-98.007812c-45.652344 0-82.671875-39.621094-82.722657-88.519531-.078124-87.09375-.167968-191.542969-.027343-249.851563.039062-17.820312 13.539062-32.242187 30.179687-32.242187h.667969c16.671875 0 30.179687 14.472656 30.179687 32.332031v-73.261718c0-17.859376 13.523438-32.339844 30.191407-32.339844h.070312c16.671875 0 30.179688 14.480468 30.179688 32.339844zm0 0" fill="#f7caa5"/><path d="m91.324219 486h98.007812c32.96875 0 63.378907-18.976562 79.355469-49.679688l87.390625-167.84375c1.742187-3.332031.914063-7.429687-1.984375-9.824218l-8.980469-7.445313c-10.378906-9.640625-24.28125-14.558593-38.410156-13.585937-14.421875 1.0625-27.757813 8.070312-36.8125 19.347656l-10.292969 12.53125-.125-182.519531c-.023437-22.222657-17.15625-40.300781-38.1875-40.300781-8.015625 0-15.804687 2.632812-22.175781 7.492187v-13.945313c.003906-22.234374-17.125-40.226562-38.175781-40.226562h-.710938c-19.132812 0-35.019531 14.851562-37.757812 34.269531-6.433594-5.097656-14.394532-7.882812-22.601563-7.910156-21.058593 0-38.121093 18.046875-38.121093 40.289063v40.464843c-6-4.734375-14.050782-7.113281-22.320313-7.113281h-.667969c-21 0-38.128906 17.832031-38.179687 40.011719-.144531 60.1875-.042969 169.625.027343 249.675781.058594 53.21875 40.753907 96.3125 90.722657 96.3125zm-74.75-345.953125c.027343-13.375 9.980469-24.046875 22.179687-24.046875h.667969c12.230469 0 22.320313 10.5 22.320313 23.910156v105.210938c0 4.417968 3.582031 8 8 8 4.417968 0 8-3.582032 8-8v-178.472656c0-13.417969 9.734374-24.339844 22.042968-24.339844 12.226563 0 21.957032 10.921875 21.957032 24.339844v178.472656c0 4.417968 3.582031 8 8 8 4.417968 0 8-3.582032 8-8v-204.980469c0-13.414063 10.25-24.140625 22.480468-24.140625h.710938c12.230468 0 22.179687 10.816406 22.179687 24.226562v46.097657c-.011719.289062-.015625.523437-.015625.710937 0 .101563.011719.179688.015625.273438l-.007812 66.882812c-.011719 46.671875-.019531 86.917969-.007813 90.902344.011719 2.109375.859375 4.128906 2.359375 5.613281s3.53125 2.308594 5.640625 2.296875h.027344c2.117188.007813 4.148438-.828125 5.644531-2.324218 1.5-1.496094 2.335938-3.527344 2.328125-5.644532-.011718-3.957031 0-44.21875.007813-90.878906l.007812-67.566406c0-.035156 0-.0625 0-.101563.054688-6.257812 2.429688-12.273437 6.664063-16.878906 3.972656-4.378906 9.597656-6.890625 15.507812-6.933594 12.21875 0 22.175782 10.914063 22.1875 24.316407l.140625 204.832031c.003907 3.378906 2.125 6.390625 5.304688 7.527343 3.179687 1.136719 6.734375.15625 8.878906-2.453124l24.460937-29.773438c6.273438-7.863281 15.535157-12.765625 25.566407-13.535156 9.8125-.648438 19.453125 2.8125 26.617187 9.550781.101563.089844.203125.179687.300782.265625l4.164062 3.457031-84.410156 162.070313c-13.214844 25.386718-38.183594 41.066406-65.164063 41.066406h-98.007812c-41.15625 0-74.675781-35.925781-74.722657-80.328125-.070312-80.039063-.171874-189.460937-.027343-249.625zm0 0" fill="#083863"/></svg>