<svg height="427pt" viewBox="0 -9 427.3679 427" width="427pt" xmlns="http://www.w3.org/2000/svg"><path d="m228.164062 57.691406c-3.550781-23.007812 10.988282-44.347656 32.46875-47.660156l.089844-.019531c21.488282-3.308594 41.78125 12.660156 45.320313 35.671875l3.261719 21.128906c-3.550782-23.011719 10.988281-44.351562 32.46875-47.660156l.871093-.128906c21.4375-3.3125 41.707031 12.589843 45.296875 35.550781 11.761719 75.117187 12.792969 82.519531 29.992188 194.777343 9.648437 63.019532-30.179688 121.429688-89.011719 130.5l-126.308594 19.472657c-38.660156 5.957031-77.75-10.960938-102.152343-44.230469l-80.5-123.929688c-19.453126-29.953124-14.792969-69.519531 11.09375-94.132812l42.808593-40.699219-5.808593-38.078125c-3.53125-23 11-44.320312 32.46875-47.632812h.007812c21.480469-3.308594 41.773438 12.660156 45.320312 35.671875l1.429688 9.269531c-3.078125-22.691406 11.363281-43.539062 32.582031-46.808594l.910157-.140625c21.488281-3.3125 41.78125 12.660157 45.320312 35.667969zm0 0" fill="#f7caa5"/><path d="m414.9375 176.898438c-7.636719-49.964844-10.5-68.65625-19.089844-123.5625-4.261718-27.253907-28.675781-46.199219-54.386718-42.226563l-.90625.136719c-12.472657 1.949218-23.585938 8.96875-30.699219 19.398437-3.335938-7.417969-8.414063-13.917969-14.800781-18.957031-9.988282-8.03125-22.886719-11.507812-35.558594-9.585938-.078125.015626-.179688.03125-.28125.050782-12.585938 2.023437-23.757813 9.203125-30.820313 19.816406-.445312.648438-.871093 1.308594-1.28125 1.976562-3.140625-5.242187-7.210937-9.871093-12.007812-13.65625-9.988281-8.03125-22.886719-11.511718-35.558594-9.585937l-.910156.140625c-12.5 1.953125-23.632813 9-30.753907 19.460938-.824218 1.191406-1.589843 2.414062-2.304687 3.660156-10.136719-15.183594-27.761719-24.0390628-46.109375-21.277344-.058594.007812-.113281.015625-.171875.023438-25.785156 3.976562-43.351563 29.4375-39.160156 56.746093l5.175781 33.957031-39.78125 37.820313c-28.664062 27.273437-33.824219 71.101563-12.277344 104.285156l80.5 123.929688c.082032.128906.167969.253906.257813.375 22.671875 30.910156 57.316406 48.675781 93.238281 48.675781 5.550781 0 11.09375-.425781 16.582031-1.269531l126.308594-19.472657c63.070313-9.722656 106-72.355468 95.699219-139.617187-4.632813-30.226563-8.089844-52.851563-10.902344-71.242187zm-87.234375 195.042968-126.308594 19.472656c-35.613281 5.492188-71.734375-10.171874-94.347656-40.871093l-80.375-123.738281c-17.347656-26.722657-13.191406-62.015626 9.894531-83.972657l31.699219-30.132812 9.152344 60.039062c.59375 3.90625 3.949219 6.792969 7.898437 6.800781.40625 0 .8125-.03125 1.214844-.09375 4.367188-.667968 7.367188-4.746093 6.703125-9.113281l-11.464844-75.191406c-.011719-.066406-.019531-.136719-.03125-.199219l-5.777343-37.898437c-2.847657-18.554688 8.652343-35.789063 25.652343-38.492188l.136719-.019531c17.085938-2.632812 33.324219 10.371094 36.203125 28.984375l1.417969 9.207031c.03125.269532.066406.539063.109375.8125h.015625l10.613281 68.863282c.675781 4.363281 4.761719 7.359374 9.128906 6.6875 4.367188-.675782 7.359375-4.761719 6.6875-9.128907l-10.710937-69.46875c-2.480469-18.273437 9.125-35.242187 25.871094-37.824219l.910156-.140624c8.289062-1.230469 16.714844 1.070312 23.226562 6.34375 7.039063 5.625 11.671875 13.71875 12.960938 22.636718l9.597656 62.265625c.601562 3.902344 3.957031 6.78125 7.902344 6.785157.410156 0 .820312-.03125 1.226562-.09375 4.367188-.675782 7.363282-4.757813 6.691406-9.125l-7.527343-48.8125c0-.019532 0-.035157 0-.050782-1.457031-8.894531.53125-18.011718 5.554687-25.492187 4.617188-6.988281 11.953125-11.714844 20.222656-13.039063.074219-.011718.164063-.027344.257813-.042968 8.238281-1.175782 16.589844 1.132812 23.054687 6.367187 7.046876 5.625 11.683594 13.71875 12.972657 22.636719l7.109375 46.089844c.601562 3.898437 3.957031 6.777343 7.902344 6.78125 2.351562-.003907 4.589843-1.011719 6.148437-2.777344 1.558594-1.761719 2.289063-4.109375 2.003906-6.445313l-3.617187-24.949219v-.007812c-1.832032-8.867188.09375-18.097656 5.316406-25.496094 4.5625-6.96875 11.847656-11.699218 20.070312-13.03125l.851563-.136718c17.042969-2.632813 33.246094 10.324218 36.148437 28.878906 8.589844 54.878906 11.429688 73.566406 19.066407 123.507812 2.8125 18.390625 6.265625 41.015625 10.898437 71.246094 8.960938 58.550781-27.972656 113.003906-82.332031 121.378906zm0 0" fill="#083863"/></svg>