<?xml version="1.0"?>
<svg xmlns="http://www.w3.org/2000/svg" height="512px" viewBox="-69 0 434 434" width="512px"><g><path d="m231.410156 202.421875c0-16.640625 12.597656-30.132813 28.128906-30.132813h.628907c15.511719 0 28.089843 13.441407 28.128906 30.050782.121094 54.339844.042969 59.679687-.027344 140.859375-.050781 45.570312-34.550781 82.492187-77.101562 82.492187h-91.347657c-27.953124 0-53.722656-16.210937-67.339843-42.371094l-42.222657-121.21875c-4.945312-14.210937-1.503906-29.992187 8.910157-40.851562l35.539062-37.25-12.789062-122.898438c-.046875-7.886718 2.898437-15.5 8.242187-21.300781 5.113282-5.578125 12.320313-8.769531 19.886719-8.8125 15.542969 0 28.132813 13.492188 28.132813 30.132813l19.847656 164.808594.140625-.019532 20-187.480468c0-16.640626 12.589843-30.121094 28.128906-30.121094h.660156c15.53125 0 28.132813 13.492187 28.132813 30.132812l-14.160156 130.308594c5.09375-7.289062 13.398437-11.660156 22.289062-11.738281h.058594c15.542968 0 28.132812 13.488281 28.132812 30.128906zm0 0" fill="#f7caa5" data-original="#F7CAA5"/><path d="m260.167969 164h-.628907c-8.390624.074219-16.472656 3.160156-22.773437 8.699219-5.375-13.960938-18.367187-23.765625-33.546875-23.765625-4.222656.007812-8.40625.789062-12.347656 2.300781l12.171875-111.949219c.03125-.285156.046875-.722656.046875-1.007812 0-21.027344-16.210938-38.277344-36.132813-38.277344h-.660156c-19.777344 0-35.898437 17.011719-36.125 37.824219l-12.550781 117.730469-11.445313-94.980469c-.257812-20.789063-16.367187-37.597657-36.128906-37.597657-9.789063.023438-19.125 4.144532-25.742187 11.363282-6.730469 7.277344-10.445313 16.84375-10.386719 26.761718 0 .277344.015625.554688.042969.828126l12.402343 119.230468-32.972656 34.558594c-12.539063 13.007812-16.675781 31.972656-10.691406 49.015625l42.222656 121.222656c.125.414063.277344.820313.457031 1.21875 14.992188 28.785157 43.519532 46.824219 74.441406 46.824219h91.347657c46.871093 0 85.046875-40.742188 85.101562-90.636719.019531-23.015625.039063-40.007812.054688-53.675781.042969-34.1875.0625-48.523438-.027344-87.472656-.050781-20.972656-16.257813-38.214844-36.128906-38.214844zm20.15625 125.589844c-.015625 13.667968-.035157 30.742187-.054688 53.757812-.046875 41.078125-31.042969 74.652344-69.101562 74.652344h-91.347657c-24.757812 0-47.691406-14.53125-59.980468-37.71875l-42.027344-120.734375c-3.988281-11.386719-1.226562-24.046875 7.144531-32.734375l23.582031-24.738281 5.28125 50.761719c.425782 4.070312 3.855469 7.164062 7.949219 7.167968.277344 0 .558594-.015625.835938-.042968 4.394531-.457032 7.585937-4.390626 7.128906-8.785157l-7.074219-68.03125c-.007812-.050781-.011718-.101562-.015625-.148437l-12.722656-122.28125c.039063-5.722656 2.203125-11.230469 6.078125-15.445313 3.601562-3.960937 8.695312-6.238281 14.046875-6.28125 11.101563 0 20.132813 9.929688 20.132813 22.132813 0 .320312.019531.636718.058593.957031l19.847657 164.816406.152343 1.238281c.511719 4.324219 4.394531 7.441407 8.726563 7.011719 4.332031-.429687 7.523437-4.246093 7.179687-8.589843l19.980469-187.277344c.027344-.28125.042969-.71875.042969-1 0-12.199219 9.03125-22.277344 20.128906-22.277344h.660156c10.976563 0 19.929688 9.863281 20.128907 21.882812l-14.101563 129.820313c-.011719.125-.03125.292969-.039063.417969l-5.808593 53.464844c-.480469 4.390624 2.6875 8.34375 7.082031 8.824218 4.390625.484375 8.34375-2.6875 8.824219-7.082031l5.589843-51.425781c3.589844-4.335938 8.914063-6.859375 14.542969-6.898438 11.097657 0 20.023438 9.929688 20.023438 22.132813v33.328125c0 4.417968 3.582031 8 8 8s8-3.582032 8-8v-18.042969c0-12.203125 9.242187-22.421875 20.339843-22.421875h.628907c11.070312 0 20.101562 10.046875 20.132812 22.210938.085938 38.921874.066407 53.210937.023438 87.378906zm0 0" fill="#083863" data-original="#083863" class="active-path" style="fill:#00AF80" data-old_color="#083863"/></g> </svg>
